<?xml version="1.0" encoding="utf-8"?>
<!-- Generator: Adobe Illustrator 22.0.1, SVG Export Plug-In . SVG Version: 6.00 Build 0)  -->
<svg version="1.1" id="Capa_1" xmlns="http://www.w3.org/2000/svg" xmlns:xlink="http://www.w3.org/1999/xlink" x="0px" y="0px"
	 viewBox="0 0 405.4 309.2" style="enable-background:new 0 0 405.4 309.2;" xml:space="preserve">
<style type="text/css">
	.st0{fill:#FFFFFF;}
	.st1{enable-background:new    ;}
	.st2{fill:#54FBFB;}
</style>
<title>Recurso 1</title>
<g>
	<path class="st0" d="M395.2,19v5.1c-3.9-3.9-9-5.8-15.1-5.8c-7.6,0-13.8,2.6-18.4,7.7c-0.6,0.6-1.1,1.3-1.6,2h-6.4
		c-1.4-1.9-3-3.5-5-5c-4.3-3.1-9.5-4.7-15.4-4.7s-11.1,1.7-15.2,4.9c0-2.4,0-3.3,0-4.2c-0.8,0-27,0-27,0V2h-10.2v37.9H277
		c-1.7-11.5-10.6-20.4-21.8-22.3V4.9H246v12.7c-11.1,2-20.1,10.9-21.8,22.3h-2.9c-0.8-5.4-2.9-10.1-6.4-14
		c-4.5-5.1-10.5-7.7-17.8-7.7c-6.4,0-11.6,2-15.6,5.9V0h-10.2v39.9H165V19h-10.2v5.1c-3.9-3.9-9-5.8-15.1-5.8
		c-7.6,0-13.8,2.6-18.4,7.7c-3.3,3.7-5.4,8.2-6.3,13.3c-0.8-5.2-2.9-9.6-6.3-13.3c-4.7-5.1-10.9-7.6-18.4-7.6S76.6,21,71.8,26
		c-3.5,3.8-5.6,8.5-6.4,14h-2.9V0h-9.9v24.1c-3.9-3.9-9-5.8-15.1-5.8c-7.6,0-13.8,2.6-18.4,7.7c-3.5,3.9-5.6,8.6-6.4,14H9.6V10.1H0
		v59.4h9.6V49h3.2c0.8,5.3,2.9,9.9,6.3,13.8c4.6,5.1,10.6,7.6,17.9,7.6c6.4,0,11.6-1.9,15.6-5.8v5h10.2V49h2.9
		c0.8,5.4,3,10,6.6,13.8c4.8,5.1,11.1,7.6,18.6,7.6c6,0,10.9-1.4,14.8-4.3c3.8-2.8,6.6-6.6,8.4-11.2l0.8-2H104l-0.4,0.8
		C101,58.6,96.9,61,91,61c-4.3,0-7.8-1.3-10.6-4c-2.4-2.3-3.9-5-4.5-8.3h39.2c0.7,5.4,2.9,10.1,6.4,14.1c4.6,5.1,10.6,7.6,17.9,7.6
		c6.4,0,11.6-1.9,15.6-5.8v5h10.2V49h6.3v20.7h10.2v-5c3.9,3.8,8.9,5.7,15,5.7c7.6,0,13.8-2.6,18.3-7.6c3.5-3.9,5.6-8.5,6.4-13.8
		h3.2c2.4,12.4,13.4,21.5,26.2,21.5c12.7,0,23.7-9.2,26.2-21.5h4.3v20.7h10.2V28.3h22.1c-2.6,3.7-4.2,8-4.7,12.8v-6.9H299v35.2h9.6
		V47.6c0.6,5.9,2.8,11.1,6.6,15.2c4.7,5.1,10.8,7.6,18.2,7.6c5.9,0,11.1-1.6,15.4-4.7c2-1.4,3.6-3.1,5-5h6.3
		c0.5,0.7,1.1,1.4,1.7,2.1c4.6,5.1,10.6,7.6,17.9,7.6c6.4,0,11.6-1.9,15.6-5.8v5h10.2V19H395.2z M49,56.2c-2.7,3.2-6.3,4.8-11,4.8
		s-8.4-1.6-11.3-4.8c-2.8-3.1-4.1-7-4.1-11.8s1.3-8.7,4.1-11.8c2.9-3.3,6.6-4.8,11.3-4.8s8.3,1.6,11.1,4.8c2.6,3.1,3.9,7,3.9,11.8
		S51.7,53.1,49,56.2z M76.1,39.1c0.7-3.1,2.2-5.6,4.3-7.6c2.7-2.5,6-3.7,10-3.7s7.3,1.2,10,3.7c2.2,2,3.6,4.5,4.4,7.6H76.1z
		 M151.4,56.2c-2.7,3.2-6.3,4.8-11.1,4.8c-4.7,0-8.4-1.6-11.3-4.8c-2.8-3.1-4.1-7-4.1-11.8s1.3-8.7,4.1-11.8
		c2.9-3.3,6.6-4.8,11.3-4.8s8.3,1.6,11.1,4.8c2.6,3.1,3.9,7,3.9,11.8S154,53.1,151.4,56.2z M207.4,56.2c-2.9,3.3-6.6,4.8-11.3,4.8
		s-8.3-1.6-11.1-4.8c-2.6-3.1-3.9-7-3.9-11.8s1.3-8.7,3.9-11.8c2.7-3.2,6.3-4.8,11.1-4.8c4.7,0,8.4,1.6,11.3,4.8
		c2.8,3.1,4.1,7,4.1,11.8S210.1,53,207.4,56.2z M250.6,61c-7.5,0-14.1-4.9-16.3-12h1.3c3.5,0,6.8-1.3,9.3-3.8l5.2-5.1l5.2,5.1
		c2.5,2.4,5.8,3.8,9.3,3.8h2.3C264.7,56,258.2,61,250.6,61z M264.6,39.9c-1.1,0-2.1-0.4-2.8-1.1l-5.2-5.1c-3.6-3.5-9.4-3.5-12.9,0
		l-5.2,5.1c-0.7,0.7-1.7,1.1-2.8,1.1H234c1.8-7.7,8.6-13.2,16.6-13.2s14.8,5.5,16.6,13.2H264.6z M346.8,52.7c-1,2.5-2.5,4.5-4.6,6
		S337.7,61,335,61c-5.2,0-9.1-1.6-12-4.8s-4.3-7-4.3-11.8c0-4.7,1.4-8.6,4.3-11.8c1.3-1.5,3-2.7,4.9-3.5c1.9-0.9,4.3-1.3,7.2-1.3
		c2.8,0,5.1,0.7,7.2,2.3c2.1,1.5,3.7,3.6,4.6,6l0.4,0.9h8.8c-0.6,2.3-0.9,4.8-0.9,7.4c0,2.6,0.3,5,0.9,7.3h-8.7L346.8,52.7z
		 M391.7,56.2c-2.7,3.2-6.3,4.8-11.1,4.8c-4.7,0-8.4-1.6-11.3-4.8c-2.8-3.1-4.1-7-4.1-11.8s1.3-8.7,4.1-11.8
		c2.9-3.3,6.6-4.8,11.3-4.8c4.7,0,8.3,1.6,11.1,4.8c2.6,3.1,3.9,7,3.9,11.8S394.3,53.1,391.7,56.2z"/>
	<g class="st1">
		<path class="st2" d="M21.1,181.6c-0.2,0.1-0.4,0.2-0.7,0.2s-0.5,0.1-0.8,0.1c0.2,0.2,0.5,0.5,0.7,0.8s0.4,0.6,0.6,1
			c0.2,0.3,0.3,0.7,0.4,1.1c0.1,0.4,0.1,0.8,0.1,1.3c0,0.7-0.1,1.4-0.3,2c-0.2,0.6-0.5,1.1-0.9,1.5s-0.8,0.7-1.3,0.9s-1,0.3-1.6,0.3
			c-0.7,0-1.4-0.1-2-0.4c-0.6-0.3-1-0.7-1.4-1.3s-0.7-1.2-0.8-2c-0.2-0.8-0.3-1.6-0.3-2.6v-2.6h-1.1c-0.4,0-0.8,0.1-1.1,0.2
			c-0.3,0.2-0.6,0.4-0.8,0.6c-0.2,0.3-0.4,0.6-0.5,1s-0.2,0.8-0.2,1.3s0.1,0.9,0.2,1.2c0.1,0.4,0.3,0.7,0.5,0.9
			c0.2,0.3,0.4,0.4,0.7,0.6s0.5,0.2,0.8,0.2v2.3c-0.5,0-1-0.1-1.5-0.4c-0.5-0.2-0.9-0.6-1.3-1.1c-0.4-0.5-0.7-1-0.9-1.7
			c-0.2-0.7-0.4-1.4-0.4-2.3c0-0.8,0.1-1.5,0.3-2.2c0.2-0.7,0.5-1.2,0.9-1.7s0.9-0.9,1.4-1.1c0.6-0.3,1.2-0.4,2-0.4h6.4
			c0.5,0,0.9,0,1.4-0.1s1-0.2,1.3-0.4h0.2V181.6z M19.4,185.7c0-0.5-0.1-0.9-0.2-1.3c-0.1-0.4-0.3-0.8-0.5-1.1s-0.4-0.6-0.7-0.8
			c-0.2-0.2-0.5-0.4-0.8-0.6h-2.8v2.2c0,1.4,0.2,2.4,0.6,3.2c0.4,0.8,1,1.1,1.9,1.1c0.3,0,0.6-0.1,0.9-0.2s0.5-0.3,0.7-0.5
			s0.4-0.5,0.5-0.9S19.4,186.1,19.4,185.7z"/>
		<path class="st2" d="M7.2,166.1c0-0.2,0-0.4,0-0.7c0-0.2,0-0.5,0.1-0.7c0-0.2,0.1-0.4,0.1-0.6c0-0.2,0.1-0.3,0.1-0.4l2.3,0.3
			c-0.1,0.5-0.2,0.9-0.2,1.3c0,0.4-0.1,0.8-0.1,1.3c0,1.1,0.2,2,0.7,2.7s1.2,1.2,2.1,1.5h8.8v2.3H7.5v-2.2l2.2-0.1
			c-0.8-0.6-1.3-1.2-1.8-2C7.4,167.9,7.2,167.1,7.2,166.1z"/>
		<path class="st2" d="M4.2,154h3.3v-5.2h1.8v5.2h7.4c0.5,0,1-0.1,1.3-0.2s0.6-0.3,0.8-0.6c0.2-0.2,0.4-0.5,0.4-0.8
			c0.1-0.3,0.1-0.6,0.1-1c0-0.3,0-0.5,0-0.8s-0.1-0.5-0.1-0.8s-0.1-0.5-0.1-0.7s-0.1-0.4-0.1-0.5l1.7-0.3c0.1,0.2,0.2,0.4,0.3,0.7
			c0.1,0.3,0.2,0.6,0.2,0.9c0.1,0.3,0.1,0.7,0.1,1c0,0.4,0.1,0.7,0.1,1.1c0,0.6-0.1,1.2-0.3,1.7c-0.2,0.5-0.4,1-0.8,1.4
			s-0.9,0.7-1.5,0.9s-1.3,0.3-2.2,0.3H9.3v3.6H7.5v-3.6H4.2V154z"/>
		<path class="st2" d="M21.4,137.9c0,1-0.2,1.8-0.5,2.6s-0.8,1.5-1.4,2.1s-1.3,1-2.1,1.3c-0.8,0.3-1.7,0.5-2.6,0.5h-0.5
			c-1.1,0-2.1-0.2-3-0.5c-0.9-0.4-1.6-0.8-2.2-1.4c-0.6-0.6-1.1-1.2-1.4-2c-0.3-0.7-0.5-1.5-0.5-2.3c0-1,0.2-1.8,0.5-2.6
			c0.3-0.7,0.8-1.3,1.4-1.8s1.3-0.9,2.1-1.1c0.8-0.2,1.7-0.4,2.7-0.4h1v9.8c0.6,0,1.2-0.1,1.8-0.4c0.5-0.2,1-0.5,1.4-0.9
			s0.7-0.8,1-1.3c0.2-0.5,0.4-1.1,0.4-1.7c0-0.8-0.2-1.6-0.5-2.2s-0.8-1.2-1.3-1.6l1.1-1.4c0.3,0.2,0.7,0.5,1,0.9
			c0.3,0.3,0.6,0.7,0.8,1.2c0.2,0.4,0.4,1,0.6,1.5C21.3,136.7,21.4,137.3,21.4,137.9z M9.1,138.2c0,0.5,0.1,0.9,0.3,1.3
			c0.2,0.4,0.4,0.8,0.8,1.1c0.3,0.3,0.7,0.6,1.2,0.9c0.5,0.2,1,0.4,1.7,0.5v-7.4h-0.2c-0.5,0-0.9,0.1-1.4,0.3
			c-0.4,0.1-0.8,0.4-1.2,0.7s-0.6,0.6-0.9,1.1C9.2,137.1,9.1,137.6,9.1,138.2z"/>
	</g>
	<g class="st1">
		<path class="st2" d="M211.3,222c-1,0-2-0.1-2.8-0.4c-0.9-0.3-1.6-0.6-2.2-1.1c-0.6-0.5-1.1-1-1.4-1.7c-0.3-0.7-0.5-1.4-0.5-2.3
			c0-0.8,0.1-1.5,0.4-2.1c0.3-0.6,0.7-1.1,1.2-1.6h-7.1v-2.3h19.4v2.1l-1.4,0.1c0.6,0.5,1,1,1.3,1.6s0.4,1.4,0.4,2.2
			s-0.2,1.6-0.5,2.2c-0.4,0.7-0.8,1.2-1.5,1.7c-0.6,0.5-1.4,0.8-2.2,1.1s-1.8,0.4-2.7,0.4h-0.4V222z M211.6,219.7
			c0.7,0,1.3-0.1,1.9-0.2c0.6-0.1,1.1-0.4,1.6-0.7s0.8-0.7,1.1-1.1c0.3-0.5,0.4-1,0.4-1.7c0-0.4,0-0.8-0.1-1.1s-0.2-0.6-0.4-0.9
			c-0.2-0.3-0.4-0.5-0.6-0.7s-0.5-0.4-0.8-0.5h-6.3c-0.6,0.3-1,0.7-1.4,1.2s-0.5,1.2-0.5,1.9s0.1,1.2,0.4,1.7
			c0.3,0.5,0.6,0.9,1.1,1.1s1,0.5,1.6,0.7c0.6,0.1,1.2,0.2,1.9,0.2h0.1V219.7z"/>
		<path class="st2" d="M201,201.4c-0.4,0-0.7-0.1-1-0.3s-0.4-0.6-0.4-1.1s0.1-0.8,0.4-1c0.3-0.2,0.6-0.4,1-0.4s0.7,0.1,0.9,0.4
			c0.3,0.2,0.4,0.6,0.4,1c0,0.5-0.1,0.8-0.4,1.1C201.7,201.2,201.4,201.4,201,201.4z M204.6,205.7v-7h11.6v-4.5h2v11.4h-2V201h-9.6
			v4.6h-2V205.7z"/>
		<path class="st2" d="M214.6,181.5c-0.3,0-0.5,0.1-0.8,0.2c-0.2,0.1-0.4,0.3-0.6,0.6c-0.2,0.3-0.4,0.6-0.5,1
			c-0.2,0.4-0.3,1-0.4,1.6c-0.2,0.8-0.4,1.5-0.6,2.1c-0.2,0.6-0.5,1.2-0.8,1.7s-0.7,0.8-1.1,1.1c-0.4,0.3-0.9,0.4-1.5,0.4
			s-1.1-0.1-1.6-0.4c-0.5-0.3-0.9-0.6-1.3-1.1c-0.4-0.5-0.6-1-0.9-1.7c-0.2-0.7-0.3-1.4-0.3-2.2s0.1-1.6,0.3-2.3s0.5-1.2,0.9-1.7
			s0.8-0.8,1.4-1.1c0.5-0.3,1.1-0.4,1.7-0.4v2.3c-0.3,0-0.6,0.1-0.9,0.2c-0.3,0.2-0.5,0.4-0.8,0.6c-0.2,0.3-0.4,0.6-0.5,1
			s-0.2,0.8-0.2,1.3s0.1,0.9,0.2,1.3c0.1,0.4,0.3,0.7,0.4,0.9s0.4,0.4,0.6,0.6c0.2,0.1,0.5,0.2,0.8,0.2s0.5-0.1,0.7-0.2
			c0.2-0.1,0.4-0.3,0.6-0.5c0.2-0.2,0.3-0.6,0.5-1c0.1-0.4,0.3-0.9,0.4-1.6c0.2-0.8,0.4-1.6,0.6-2.3c0.2-0.7,0.5-1.2,0.8-1.7
			s0.7-0.8,1.1-1c0.4-0.2,0.9-0.4,1.5-0.4s1.2,0.1,1.7,0.4c0.5,0.3,0.9,0.7,1.3,1.1c0.4,0.5,0.6,1.1,0.8,1.8s0.3,1.4,0.3,2.2
			c0,0.9-0.1,1.8-0.4,2.5c-0.2,0.7-0.6,1.3-1,1.8s-0.9,0.9-1.4,1.2s-1.1,0.4-1.7,0.4v-2.3c0.5,0,0.9-0.2,1.2-0.4s0.6-0.5,0.8-0.8
			s0.3-0.7,0.4-1.1s0.1-0.8,0.1-1.2c0-1-0.2-1.8-0.5-2.3S215.2,181.5,214.6,181.5z"/>
		<path class="st2" d="M218.5,169c0,1-0.2,1.8-0.5,2.6s-0.8,1.5-1.4,2.1c-0.6,0.6-1.3,1-2.1,1.3s-1.7,0.5-2.6,0.5h-0.5
			c-1.1,0-2.1-0.2-3-0.5c-0.9-0.4-1.6-0.8-2.2-1.4c-0.6-0.6-1.1-1.3-1.4-2c-0.3-0.7-0.5-1.5-0.5-2.3c0-1,0.2-1.8,0.5-2.6
			c0.3-0.7,0.8-1.3,1.4-1.8c0.6-0.5,1.3-0.9,2.1-1.1c0.8-0.2,1.7-0.4,2.7-0.4h1v9.8c0.6,0,1.2-0.1,1.8-0.4c0.5-0.2,1-0.5,1.4-0.9
			s0.7-0.8,1-1.3c0.2-0.5,0.4-1.1,0.4-1.7c0-0.8-0.2-1.6-0.5-2.2s-0.8-1.2-1.3-1.6l1.1-1.4c0.3,0.2,0.7,0.5,1,0.9
			c0.3,0.3,0.6,0.7,0.8,1.2c0.2,0.4,0.4,1,0.6,1.5C218.4,167.7,218.5,168.3,218.5,169z M206.3,169.3c0,0.5,0.1,0.9,0.3,1.3
			c0.2,0.4,0.4,0.8,0.8,1.1c0.3,0.3,0.7,0.6,1.2,0.9c0.5,0.2,1,0.4,1.7,0.5v-7.4H210c-0.5,0-0.9,0.1-1.4,0.3s-0.8,0.4-1.2,0.7
			s-0.6,0.6-0.9,1.1C206.4,168.2,206.3,168.7,206.3,169.3z"/>
		<path class="st2" d="M199,149.7c0.4,0,0.7,0.1,1.1,0.2c0.3,0.1,0.6,0.3,0.9,0.5c0.3,0.2,0.5,0.5,0.6,0.8c0.2,0.3,0.2,0.7,0.2,1
			s0,0.5-0.1,0.7s-0.1,0.4-0.2,0.6c-0.1,0.2-0.2,0.4-0.3,0.5s-0.2,0.3-0.3,0.5s-0.2,0.3-0.2,0.5c-0.1,0.2-0.1,0.4-0.1,0.6
			c0,0.4,0.1,0.7,0.4,0.9s0.6,0.4,1,0.4l-0.3,1.3c-0.4,0-0.7-0.1-1.1-0.2c-0.3-0.1-0.7-0.3-0.9-0.5c-0.3-0.2-0.5-0.5-0.6-0.8
			c-0.2-0.3-0.2-0.7-0.2-1.1c0-0.4,0.1-0.7,0.2-1c0.1-0.3,0.3-0.6,0.4-0.8s0.3-0.5,0.4-0.8c0.1-0.3,0.2-0.6,0.2-0.9
			c0-0.2,0-0.3-0.1-0.5s-0.2-0.3-0.3-0.4c-0.1-0.1-0.3-0.2-0.4-0.3c-0.2-0.1-0.4-0.1-0.5-0.1L199,149.7z M204.6,157.4l2-0.2
			c-0.7-0.5-1.3-1.1-1.7-1.8s-0.6-1.5-0.6-2.4c0-0.7,0.1-1.4,0.3-2s0.5-1.1,0.9-1.5s1-0.7,1.6-1s1.4-0.3,2.4-0.3h8.7v2.3h-8.6
			c-0.6,0-1.1,0.1-1.5,0.2c-0.4,0.1-0.8,0.3-1,0.6c-0.3,0.3-0.5,0.6-0.6,1s-0.2,0.8-0.2,1.3c0,0.8,0.2,1.5,0.6,2.1s0.9,1.1,1.5,1.4
			h9.8v2.3h-13.7v-2H204.6z"/>
		<path class="st2" d="M211.3,144.6c-1,0-1.9-0.1-2.7-0.4c-0.8-0.3-1.6-0.7-2.2-1.2c-0.6-0.5-1.1-1.2-1.5-2s-0.5-1.6-0.5-2.6
			s0.2-1.8,0.5-2.6c0.4-0.8,0.8-1.4,1.5-2s1.4-0.9,2.2-1.2s1.8-0.4,2.7-0.4h0.3c1,0,1.9,0.1,2.7,0.4c0.8,0.3,1.6,0.7,2.2,1.2
			s1.1,1.2,1.5,2s0.5,1.6,0.5,2.6s-0.2,1.8-0.5,2.6c-0.4,0.8-0.8,1.4-1.5,2c-0.6,0.5-1.4,0.9-2.2,1.2s-1.8,0.4-2.7,0.4H211.3z
			 M211.6,142.3c0.7,0,1.3-0.1,1.9-0.2c0.6-0.2,1.1-0.4,1.6-0.7s0.8-0.7,1.1-1.2s0.4-1.1,0.4-1.7c0-0.6-0.1-1.2-0.4-1.7
			c-0.3-0.5-0.6-0.9-1.1-1.2s-1-0.6-1.6-0.7s-1.3-0.2-1.9-0.2h-0.3c-0.7,0-1.3,0.1-1.9,0.2s-1.1,0.4-1.6,0.7s-0.8,0.7-1.1,1.2
			s-0.4,1.1-0.4,1.7s0.1,1.2,0.4,1.7c0.3,0.5,0.6,0.9,1.1,1.2s1,0.6,1.6,0.7c0.6,0.2,1.2,0.2,1.9,0.2H211.6z"/>
	</g>
	<g class="st1">
		<path class="st2" d="M388.5,262.1c0,1-0.2,1.8-0.5,2.6c-0.3,0.8-0.8,1.5-1.4,2.1s-1.3,1-2.1,1.3s-1.7,0.5-2.6,0.5h-0.5
			c-1.1,0-2.1-0.2-3-0.5c-0.9-0.4-1.6-0.8-2.2-1.4s-1.1-1.2-1.4-2c-0.3-0.7-0.5-1.5-0.5-2.3c0-1,0.2-1.8,0.5-2.6s0.8-1.3,1.4-1.8
			s1.3-0.9,2.1-1.1c0.8-0.2,1.7-0.4,2.7-0.4h1v9.8c0.6,0,1.2-0.1,1.8-0.4c0.5-0.2,1-0.5,1.4-0.9s0.7-0.8,1-1.3
			c0.2-0.5,0.4-1.1,0.4-1.7c0-0.8-0.2-1.6-0.5-2.2s-0.8-1.2-1.3-1.6l1.1-1.4c0.3,0.2,0.7,0.5,1,0.9c0.3,0.3,0.6,0.7,0.8,1.2
			s0.4,1,0.6,1.5C388.4,260.9,388.5,261.5,388.5,262.1z M376.3,262.4c0,0.5,0.1,0.9,0.3,1.3c0.2,0.4,0.4,0.8,0.8,1.1
			c0.3,0.3,0.7,0.6,1.2,0.9s1,0.4,1.7,0.5v-7.4H380c-0.5,0-0.9,0.1-1.4,0.3c-0.4,0.1-0.8,0.4-1.2,0.7c-0.4,0.3-0.6,0.6-0.9,1.1
			C376.4,261.3,376.3,261.8,376.3,262.4z"/>
		<path class="st2" d="M381.3,253.1c-1,0-2-0.1-2.8-0.4c-0.9-0.3-1.6-0.6-2.2-1.1s-1.1-1.1-1.4-1.7c-0.3-0.7-0.5-1.4-0.5-2.3
			c0-0.8,0.1-1.5,0.4-2.1s0.7-1.1,1.2-1.6h-7.1v-2.3h19.4v2.1l-1.4,0.1c0.6,0.5,1,1,1.3,1.6s0.4,1.4,0.4,2.2c0,0.8-0.2,1.6-0.5,2.2
			c-0.4,0.7-0.8,1.2-1.5,1.7c-0.6,0.5-1.4,0.8-2.2,1.1c-0.8,0.3-1.8,0.4-2.7,0.4L381.3,253.1L381.3,253.1z M381.6,250.7
			c0.7,0,1.3-0.1,1.9-0.2s1.1-0.4,1.6-0.7c0.5-0.3,0.8-0.7,1.1-1.1c0.3-0.5,0.4-1,0.4-1.7c0-0.4,0-0.8-0.1-1.1s-0.2-0.6-0.4-0.9
			c-0.2-0.3-0.4-0.5-0.6-0.7s-0.5-0.4-0.8-0.5h-6.3c-0.6,0.3-1,0.7-1.4,1.2s-0.5,1.2-0.5,1.9c0,0.7,0.1,1.2,0.4,1.7s0.6,0.9,1.1,1.2
			s1,0.5,1.6,0.7C380.2,250.6,380.8,250.7,381.6,250.7L381.6,250.7z"/>
		<path class="st2" d="M386.4,228.3c0.7,0.5,1.2,1,1.6,1.7s0.6,1.5,0.6,2.4c0,0.7-0.1,1.4-0.3,1.9c-0.2,0.6-0.6,1.1-1,1.5
			c-0.5,0.4-1.1,0.7-1.8,1c-0.7,0.2-1.6,0.3-2.6,0.3h-8.1v-2.3h8.1c0.7,0,1.4-0.1,1.8-0.2c0.5-0.1,0.9-0.3,1.2-0.5
			c0.3-0.2,0.5-0.5,0.6-0.9s0.2-0.7,0.2-1.2c0-1-0.2-1.7-0.6-2.3c-0.4-0.6-0.9-1-1.6-1.3h-9.8V226h13.7v2.1L386.4,228.3z"/>
		<path class="st2" d="M386.6,215.8c0-0.4-0.1-0.8-0.2-1.2s-0.3-0.8-0.6-1.1s-0.5-0.6-0.8-0.8s-0.7-0.3-1.1-0.3v-2.2
			c0.6,0,1.2,0.2,1.7,0.5c0.6,0.3,1,0.7,1.5,1.2s0.8,1.1,1,1.8s0.4,1.4,0.4,2.1c0,1-0.2,1.9-0.6,2.7s-0.9,1.4-1.5,1.9
			s-1.4,0.9-2.2,1.2c-0.8,0.3-1.7,0.4-2.6,0.4h-0.5c-0.9,0-1.8-0.1-2.6-0.4c-0.8-0.3-1.6-0.7-2.2-1.2s-1.1-1.2-1.5-1.9
			c-0.4-0.8-0.6-1.7-0.6-2.7c0-0.8,0.1-1.6,0.4-2.2c0.3-0.7,0.6-1.3,1-1.8s1-0.9,1.6-1.2s1.3-0.4,1.9-0.4v2.2
			c-0.4,0-0.8,0.1-1.2,0.3c-0.4,0.2-0.7,0.4-1,0.7s-0.5,0.6-0.7,1.1c-0.2,0.4-0.2,0.8-0.2,1.3c0,0.7,0.1,1.3,0.4,1.8
			s0.7,0.9,1.1,1.2c0.5,0.3,1,0.5,1.6,0.7s1.2,0.2,1.8,0.2h0.5c0.6,0,1.2-0.1,1.8-0.2s1.1-0.3,1.6-0.6s0.8-0.7,1.1-1.2
			C386.5,217.1,386.6,216.5,386.6,215.8z"/>
		<path class="st2" d="M388.3,197.1c-0.2,0.1-0.4,0.2-0.7,0.2s-0.5,0.1-0.8,0.1c0.2,0.2,0.5,0.5,0.7,0.8s0.4,0.6,0.6,1
			c0.2,0.3,0.3,0.7,0.4,1.1c0.1,0.4,0.1,0.8,0.1,1.3c0,0.7-0.1,1.4-0.3,2c-0.2,0.6-0.5,1.1-0.9,1.5s-0.8,0.7-1.3,0.9s-1,0.3-1.6,0.3
			c-0.7,0-1.4-0.1-2-0.4c-0.6-0.3-1-0.7-1.4-1.3c-0.4-0.5-0.7-1.2-0.8-2S380,201,380,200v-2.6h-1.1c-0.4,0-0.8,0.1-1.1,0.2
			c-0.3,0.2-0.6,0.4-0.8,0.6s-0.4,0.6-0.5,1s-0.2,0.8-0.2,1.3s0.1,0.9,0.2,1.2c0.1,0.4,0.3,0.7,0.5,0.9c0.2,0.3,0.4,0.4,0.7,0.6
			c0.3,0.1,0.5,0.2,0.8,0.2v2.3c-0.5,0-1-0.1-1.5-0.4c-0.5-0.2-0.9-0.6-1.3-1.1s-0.7-1-0.9-1.7c-0.2-0.7-0.4-1.4-0.4-2.3
			c0-0.8,0.1-1.5,0.3-2.2c0.2-0.7,0.5-1.2,0.9-1.7s0.9-0.9,1.4-1.1c0.6-0.3,1.2-0.4,2-0.4h6.4c0.5,0,0.9,0,1.4-0.1s1-0.2,1.3-0.4
			h0.2V197.1z M386.5,201.2c0-0.5-0.1-0.9-0.2-1.3s-0.3-0.8-0.5-1.1s-0.4-0.6-0.7-0.8c-0.2-0.2-0.5-0.4-0.8-0.6h-2.8v2.2
			c0,1.4,0.2,2.4,0.6,3.2s1,1.1,1.9,1.1c0.3,0,0.6-0.1,0.9-0.2c0.3-0.1,0.5-0.3,0.7-0.5s0.4-0.5,0.5-0.9
			C386.4,202.1,386.5,201.7,386.5,201.2z"/>
		<path class="st2" d="M386.6,184.7c0-0.4-0.1-0.8-0.2-1.2s-0.3-0.8-0.6-1.1s-0.5-0.6-0.8-0.8s-0.7-0.3-1.1-0.3v-2.2
			c0.6,0,1.2,0.2,1.7,0.5c0.6,0.3,1,0.7,1.5,1.2s0.8,1.1,1,1.8s0.4,1.4,0.4,2.1c0,1-0.2,1.9-0.6,2.7s-0.9,1.4-1.5,1.9
			s-1.4,0.9-2.2,1.2c-0.8,0.3-1.7,0.4-2.6,0.4h-0.5c-0.9,0-1.8-0.1-2.6-0.4c-0.8-0.3-1.6-0.7-2.2-1.2s-1.1-1.2-1.5-1.9
			c-0.4-0.8-0.6-1.7-0.6-2.7c0-0.8,0.1-1.6,0.4-2.2c0.3-0.7,0.6-1.3,1-1.8s1-0.9,1.6-1.2s1.3-0.4,1.9-0.4v2.2
			c-0.4,0-0.8,0.1-1.2,0.3c-0.4,0.2-0.7,0.4-1,0.7s-0.5,0.6-0.7,1.1c-0.2,0.4-0.2,0.8-0.2,1.3c0,0.7,0.1,1.3,0.4,1.8
			s0.7,0.9,1.1,1.2c0.5,0.3,1,0.5,1.6,0.7s1.2,0.2,1.8,0.2h0.5c0.6,0,1.2-0.1,1.8-0.2s1.1-0.3,1.6-0.6s0.8-0.7,1.1-1.2
			C386.5,186.1,386.6,185.5,386.6,184.7z"/>
		<path class="st2" d="M371,170.3c-0.4,0-0.7-0.1-1-0.3s-0.4-0.6-0.4-1.1s0.1-0.8,0.4-1s0.6-0.4,1-0.4s0.7,0.1,0.9,0.4
			s0.4,0.6,0.4,1c0,0.5-0.1,0.8-0.4,1.1S371.4,170.3,371,170.3z M374.6,174.7v-7h11.6v-4.5h2v11.4h-2V170h-9.6v4.6L374.6,174.7
			L374.6,174.7z"/>
		<path class="st2" d="M369.3,152.7v-2.8l3.4,3.4v1.8L369.3,152.7z M381.3,160.1c-1,0-1.9-0.1-2.7-0.4c-0.8-0.3-1.6-0.7-2.2-1.2
			s-1.1-1.2-1.5-2s-0.5-1.6-0.5-2.6s0.2-1.8,0.5-2.6c0.4-0.8,0.8-1.4,1.5-2c0.6-0.5,1.4-0.9,2.2-1.2c0.8-0.3,1.8-0.4,2.7-0.4h0.3
			c1,0,1.9,0.1,2.7,0.4c0.8,0.3,1.6,0.7,2.2,1.2s1.1,1.2,1.5,2s0.5,1.6,0.5,2.6s-0.2,1.8-0.5,2.6c-0.4,0.8-0.8,1.4-1.5,2
			c-0.6,0.5-1.4,0.9-2.2,1.2c-0.8,0.3-1.8,0.4-2.7,0.4H381.3z M381.6,157.8c0.7,0,1.3-0.1,1.9-0.2s1.1-0.4,1.6-0.7s0.8-0.7,1.1-1.2
			c0.3-0.5,0.4-1.1,0.4-1.7c0-0.6-0.1-1.2-0.4-1.7s-0.6-0.9-1.1-1.2s-1-0.6-1.6-0.7c-0.6-0.2-1.3-0.2-1.9-0.2h-0.3
			c-0.7,0-1.3,0.1-1.9,0.2s-1.1,0.4-1.6,0.7s-0.8,0.7-1.1,1.2c-0.3,0.5-0.4,1.1-0.4,1.7s0.1,1.2,0.4,1.7s0.6,0.9,1.1,1.2
			s1,0.6,1.6,0.7s1.2,0.2,1.9,0.2H381.6z"/>
		<path class="st2" d="M374.6,141.9l2-0.2c-0.7-0.5-1.3-1.1-1.7-1.8c-0.4-0.7-0.6-1.5-0.6-2.4c0-0.7,0.1-1.4,0.3-2s0.5-1.1,0.9-1.5
			s1-0.7,1.6-1c0.7-0.2,1.4-0.3,2.4-0.3h8.7v2.3h-8.6c-0.6,0-1.1,0.1-1.5,0.2c-0.4,0.1-0.8,0.3-1,0.6s-0.5,0.6-0.6,1
			s-0.2,0.8-0.2,1.3c0,0.8,0.2,1.5,0.6,2.1s0.9,1.1,1.5,1.4h9.8v2.3h-13.7v-2H374.6z"/>
	</g>
</g>
</svg>
