<?xml version="1.0" encoding="utf-8"?>
<!-- Generator: Adobe Illustrator 22.0.1, SVG Export Plug-In . SVG Version: 6.00 Build 0)  -->
<svg version="1.1" id="Capa_1" xmlns="http://www.w3.org/2000/svg" xmlns:xlink="http://www.w3.org/1999/xlink" x="0px" y="0px"
	 viewBox="0 0 1072.1 598.7" style="enable-background:new 0 0 1072.1 598.7;" xml:space="preserve">
<style type="text/css">
	.st0{fill:#02DEFF;}
	.st1{fill:#4D3185;}
	.st2{fill:#FB00EE;}
	.st3{fill:#FFFFFF;}
	.st4{font-family:'RobotoMono-Regular';}
	.st5{font-size:25.87px;}
	.st6{fill:#54FBFB;}
</style>
<path id="_Trazado_compuesto_" class="st0" d="M1020.5,310.3c-0.6-6.8-6.6-11.8-13.4-11.2c-5.9,0.5-10.6,5.2-11.2,11.2h-3.7v2.2h3.7
	c0.6,6.8,6.6,11.8,13.4,11.2c5.9-0.5,10.6-5.2,11.2-11.2h3.6v-2.2H1020.5z M1008.2,301.2c2.3,0,4.6,0.8,6.4,2.2l-6.4,6.4l-6.4-6.4
	C1003.6,302,1005.9,301.2,1008.2,301.2z M998.1,311.4c0-2.3,0.8-4.6,2.2-6.4l6.4,6.4l-6.4,6.4C998.9,315.9,998.1,313.7,998.1,311.4
	L998.1,311.4z M1008.2,321.5c-2.3,0-4.6-0.8-6.4-2.2l6.4-6.4l6.4,6.4C1012.8,320.7,1010.5,321.5,1008.2,321.5z M1016.1,317.7
	l-6.4-6.4l6.4-6.4C1019.1,308.7,1019.1,314,1016.1,317.7z"/>
<path id="_Trazado_compuesto_2" class="st1" d="M202.3,77.7c-6.8-6.8-17.7-6.8-24.5,0s-6.8,17.7,0,24.5s17.7,6.8,24.5,0
	c3.2-3.2,5.1-7.6,5.1-12.2C207.4,85.3,205.5,80.9,202.3,77.7z M190,104.9c-8.3,0-15-6.7-15-15s6.7-15,15-15s15,6.7,15,15
	S198.3,104.9,190,104.9L190,104.9z"/>
<path id="_Trazado_compuesto_3" class="st1" d="M190,83.8c-3.4,0-6.1,2.8-6.1,6.2s2.8,6.2,6.1,6.2c3.4,0,6.2-2.8,6.2-6.2l0,0
	C196.2,86.5,193.4,83.8,190,83.8z M190,93.4c-1.9,0-3.5-1.6-3.5-3.5s1.6-3.5,3.5-3.5s3.5,1.6,3.5,3.5l0,0
	C193.5,91.8,192,93.4,190,93.4L190,93.4z"/>
<path id="_Trazado_compuesto_4" class="st0" d="M252.9,80.3c-5.3,0-9.6,4.3-9.6,9.6s4.3,9.6,9.6,9.6c5.3,0,9.6-4.3,9.6-9.6l0,0
	C262.5,84.6,258.2,80.3,252.9,80.3z M252.9,95.3c-3,0-5.4-2.4-5.4-5.4s2.4-5.4,5.4-5.4s5.4,2.4,5.4,5.4l0,0
	C258.3,92.9,255.9,95.3,252.9,95.3L252.9,95.3L252.9,95.3z"/>
<rect id="_Trazado_" x="179.7" y="437.5" class="st2" width="20.7" height="3"/>
<rect id="_Trazado_2" x="179.7" y="428.3" class="st2" width="20.7" height="3"/>
<path id="_Trazado_3" class="st0" d="M197.5,304.5c-1.5,0-2.9-0.6-4-1.6l-4.2-4.2c-3.7-3.7-9.6-3.7-13.3,0l-2.8,2.8l2.7,2.7l2.8-2.8
	c2.2-2.2,5.7-2.2,7.9,0l4.2,4.2c3.7,3.7,9.6,3.7,13.3,0l2.8-2.8l-2.7-2.7l-2.7,2.8C200.4,304,199,304.6,197.5,304.5z"/>
<path id="_Trazado_4" class="st2" d="M1014.4,438.9c-1.3,0-2.5-0.5-3.5-1.4l-3.7-3.7c-3.2-3.2-8.4-3.2-11.6,0l-2.5,2.4l2.4,2.4
	l2.4-2.4c1.9-1.9,5-1.9,6.9,0l0,0l3.7,3.7c3.2,3.2,8.4,3.2,11.6,0l0,0l2.4-2.4l-2.4-2.4l-2.4,2.4
	C1016.9,438.4,1015.7,438.9,1014.4,438.9z"/>
<g id="_Grupo_">
	<polygon id="_Trazado_5" class="st1" points="901.5,89.2 888.8,89.2 888.8,74.9 886.2,74.9 886.2,106.1 888.8,106.1 888.8,91.8 
		901.5,91.8 	"/>
	<polygon id="_Trazado_6" class="st1" points="874.2,89.2 861.6,89.2 861.6,91.8 874.2,91.8 874.2,106.1 876.8,106.1 876.8,74.9 
		874.2,74.9 	"/>
</g>
<text transform="matrix(6.123234e-17 -1 1 6.123234e-17 366.57 178.5402)" class="st3 st4 st5">+</text>
<text transform="matrix(6.123234e-17 -1 1 6.123234e-17 386.57 31.05)" class="st1 st4 st5">++</text>
<text transform="matrix(0 1 1 0 846.9 434.15)" class="st3 st4 st5">+</text>
<text transform="matrix(0 1 1 0 639.4531 567.64)" class="st1 st4 st5">++</text>
<rect x="1006.2" y="518.8" class="st1" width="3.4" height="10.3"/>
<rect x="1006.2" y="535.8" class="st1" width="3.4" height="13.4"/>
<path id="_Trazado_7" class="st1" d="M883.1,298.8v-12.4h-3.2v12.4l-2.2-2.2l-2.2,2.2l4.9,4.9c0.3,0.3,0.7,0.5,1.1,0.5
	c0.4,0,0.8-0.2,1.1-0.5l4.9-4.9l-2.2-2.2L883.1,298.8z"/>
<polygon id="_Trazado_8" class="st1" points="885.3,310.8 881.8,314.2 881.2,314.2 877.7,310.8 875.5,313 879.9,317.4 879.9,328.2 
	883.1,328.2 883.1,317.4 887.5,313 "/>
<text transform="matrix(6.123234e-17 -1 1 6.123234e-17 1016.4601 178.5402)" class="st2 st4 st5">+</text>
<text transform="matrix(6.123234e-17 -1 1 6.123234e-17 639.4534 178.5402)" class="st2 st4 st5">+</text>
<text transform="matrix(6.123234e-17 -1 1 6.123234e-17 639.4534 31.05)" class="st6 st4 st5">++</text>
<path id="_Trazado_compuesto_5" class="st2" d="M772.8,89.3h-4.3c-0.6-7.1-6.8-12.4-13.9-11.8c-6.3,0.5-11.3,5.5-11.8,11.8h-4.3v2.2
	h4.3c0.7,7.1,7,12.3,14.1,11.6c6.1-0.6,11-5.5,11.6-11.6h4.3L772.8,89.3z M755.6,79.7c5.5,0,10.1,4.2,10.6,9.6h-2.8
	c-0.9,0-1.8-0.3-2.5-1l-2.8-2.8c-1.4-1.4-3.7-1.4-5.1,0l-2.8,2.8c-0.7,0.6-1.5,1-2.5,1H745C745.5,83.9,750.1,79.7,755.6,79.7z
	 M755.6,101c-5.4,0-9.9-4.1-10.6-9.5h2.8c1.5,0,2.9-0.6,4-1.7l2.8-2.8c0.5-0.5,1.4-0.5,1.9,0l0,0l2.8,2.8c1.1,1.1,2.5,1.7,4,1.7h2.8
	C765.5,96.9,761,101,755.6,101L755.6,101z"/>
<path id="_Trazado_compuesto_6" class="st1" d="M832.1,528.5c-0.6-7.1-6.9-12.3-13.9-11.7c-6.2,0.5-11.1,5.5-11.7,11.7h-3.9v2.2h3.9
	c0.6,7.1,6.9,12.3,13.9,11.7c6.2-0.5,11.1-5.5,11.7-11.7h3.9v-2.2H832.1z M819.4,540.2c-5.9,0-10.7-4.8-10.7-10.6
	c0-5.9,4.8-10.7,10.6-10.7c5.9,0,10.7,4.8,10.7,10.6l0,0C830,535.4,825.2,540.2,819.4,540.2L819.4,540.2z"/>
<path id="_Trazado_9" class="st1" d="M823.7,531.1c-0.8,0-1.7-0.3-2.3-0.9l-2.4-2.4c-2.1-2.1-5.5-2.1-7.6,0l-1.6,1.6l1.5,1.5
	l1.6-1.6c1.2-1.2,3.3-1.3,4.5,0l0,0l2.4,2.4c2.1,2.1,5.5,2.1,7.6,0l1.6-1.6l-1.5-1.5l-1.6,1.6C825.4,530.7,824.6,531.1,823.7,531.1z
	"/>
<rect id="_Trazado_10" x="492.8" y="196.8" class="st0" width="23.6" height="3.5"/>
<rect id="_Trazado_11" x="492.8" y="186.4" class="st0" width="23.6" height="3.5"/>
<path id="_Trazado_compuesto_7" class="st0" d="M516.9,89c-0.6-6.8-6.5-11.8-13.3-11.2c-6,0.5-10.7,5.2-11.2,11.2h-3.8v2h3.7
	c0.6,6.8,6.5,11.8,13.3,11.2c6-0.5,10.7-5.2,11.2-11.2h3.7v-2H516.9z M494.4,90c0-5.3,4-9.7,9.2-10.2v20.4
	C498.4,99.6,494.4,95.2,494.4,90L494.4,90z M505.7,100.2V79.8c5.6,0.6,9.7,5.6,9.2,11.2C514.4,95.9,510.5,99.7,505.7,100.2
	L505.7,100.2z"/>
<path id="_Trazado_compuesto_8" class="st2" d="M515.3,436.1c-0.5-5.9-5.6-10.3-11.6-9.8c-5.2,0.4-9.4,4.6-9.8,9.8h-3.2v1.8h3.2
	c0.5,5.9,5.6,10.3,11.6,9.8c5.2-0.4,9.4-4.6,9.8-9.8h3.2v-1.8H515.3z M504.6,445.9c-4.9,0-8.9-4-8.9-8.9s4-8.9,8.9-8.9
	s8.9,4,8.9,8.9S509.5,445.9,504.6,445.9z"/>
<path class="st2" d="M69.4,298.3v-17.1H67v16.7l-12.5-7.7c-0.6-0.3-1.3-0.2-1.6,0.4c-0.1,0.2-0.2,0.4-0.2,0.6v7.1h-8.4v2.4h8.4v7.1
	c0,0.7,0.5,1.2,1.2,1.2l0,0c0.2,0,0.4-0.1,0.6-0.2L67,301v16.7h2.4v-17.1H81v-2.4L69.4,298.3L69.4,298.3z M55.1,305.6v-12.2l9.9,6.1
	L55.1,305.6z"/>
<path class="st1" d="M506.4,560.6h-6v2.4h6v17.1h2.4v-36.6h-2.4V560.6z"/>
<path class="st1" d="M511.2,560.6h-6v-9.1c0-0.7-0.5-1.2-1.2-1.2l0,0h-4.8c-0.7,0-1.2,0.5-1.2,1.2l0,0v20.7c0,0.7,0.5,1.2,1.2,1.2
	l0,0h4.8c0.7,0,1.2-0.5,1.2-1.2l0,0V563h6V560.6z M502.8,570.9h-2.4v-18.3h2.4V570.9z"/>
<path class="st0" d="M77,536.7l-1-1.6l-15.3,9.4H48.3v1.9h12.4l15.3,9.4l1-1.6l-14.2-8.8L77,536.7z"/>
</svg>
